# xmcd
#
# Track frame offsets: 
#        150
#        30387
#        53178
#        84780
#        107437
#        140867
#        172621
#        203866
#        230180
#        261558
#        295277
#
# Disc length: 4370 seconds
#
# Revision: 0
# Processed by: cddbd v1.5.2PL0 Copyright (c) Steve Scherf et al.
# Submitted via: ExactAudioCopy v0.99pb4
#
DISCID=9811100b
DTITLE=20-2-Life - No Bond (Chopped and Screwed)
DYEAR=2001
DGENRE=Rap
TTITLE0=Inside Lookin Out Feat. DJ Screw
TTITLE1=Afta Servin A Duece
TTITLE2=Playa Hatas
TTITLE3=Whateva It Takes Feat. Master P
TTITLE4=Backstreets Feat. PSK-13
TTITLE5=Momma Feat. Ronnie Spencer
TTITLE6=Twenty To Life
TTITLE7=On Da Grind Feat. Lil Keke
TTITLE8=Ghetto Life Feat. Lil Keke
TTITLE9=Roofin It
TTITLE10=Bonus Track
EXTD=
EXTT0=
EXTT1=
EXTT2=
EXTT3=
EXTT4=
EXTT5=
EXTT6=
EXTT7=
EXTT8=
EXTT9=
EXTT10=
PLAYORDER=
